<svg width="239" height="26" viewBox="0 0 239 26" fill="none" xmlns="http://www.w3.org/2000/svg">
<path fill-rule="evenodd" clip-rule="evenodd" d="M9.57201 1.073C3.36151 2.8605 -0.679992 9.769 0.912008 15.876C3.49301 25.776 15.7395 28.8115 22.431 21.21C30.5715 11.962 21.4375 -2.3415 9.57201 1.073ZM36.874 1.183C31.4695 3.1995 28.488 7.5725 28.511 13.4495C28.5255 17.0945 29.781 19.782 32.6485 22.3065C36.607 25.791 41.7855 26.5055 46.4025 24.205C55.655 19.594 55.5875 6.6925 46.286 1.9005C43.7715 0.6055 39.33 0.266501 36.874 1.183ZM65.0235 1.0855C61.396 2.127 58.1425 5.3675 56.7185 9.359C55.8335 11.8395 55.838 13.7755 56.7355 16.784C58.7085 23.397 65.7105 26.9545 72.692 24.892C75.4385 24.0805 79.5805 19.9385 80.392 17.192C83.3265 7.259 74.7675 -1.711 65.0235 1.0855ZM94.842 1.2245C90.199 2.8805 87.5 7.253 87.5 13.1195C87.5 20.784 91.7155 25.4625 98.645 25.489C103.169 25.506 107.176 22.8355 108.192 19.125C108.362 18.5065 108.627 17.55 108.783 17C109.029 16.134 108.828 16 107.283 16C105.912 16 105.5 16.204 105.5 16.883C105.5 19.704 101.885 23 98.7905 23C92.9505 23 89.183 16.286 91.1765 9.4295C92.3245 5.4805 94.199 3.8715 97.9715 3.599C101.511 3.343 104.091 4.609 104.93 7.0135C105.352 8.2245 105.731 8.5 106.974 8.5C108.716 8.5 108.916 7.7535 107.768 5.5345C105.608 1.358 99.8505 -0.561999 94.842 1.2245ZM159.119 1.1675C156.542 2.1025 154.242 4.225 152.976 6.839C151.539 9.8035 151.356 16.17 152.627 19.005C155.817 26.126 165.791 27.8015 170.645 22.033L172 20.4235V22.7115C172 23.97 172.225 25 172.5 25C172.804 25 173 22.75 173 19.25V13.5H168C165 13.5 163 13.7 163 14C163 14.297 164.854 14.5 167.564 14.5H172.128L171.799 16.5525C171.143 20.655 169.153 22.8815 165.188 23.9495C162.795 24.5935 160.458 24.2555 157.991 22.9075C152.786 20.0635 151.482 11.126 155.469 5.6215C157.44 2.9005 159.892 1.836 163.573 2.102C167.106 2.3575 168.854 3.4785 170.25 6.383C171.245 8.4535 172.5 9.2025 172.5 7.725C172.5 6.438 171.127 4.1965 169.502 2.829C166.878 0.621001 162.54 -0.0729995 159.119 1.1675ZM111 12.9395V25L116.375 24.997C122.706 24.994 124.925 24.4745 127.222 22.4575C129.415 20.532 130.5 17.2845 130.5 12.645C130.5 7.094 129.103 4.356 125.25 2.3545C123.639 1.518 122.06 1.2735 117.125 1.0975L111 0.8795V12.9395ZM133 13V25H134.5H136V20.999V16.998L138.088 15.031L140.177 13.0635L144.457 19.032C148.622 24.841 148.786 25 150.618 25C151.653 25 152.5 24.8805 152.5 24.734C152.5 24.588 150.215 21.387 147.422 17.6205L142.344 10.7725L147.172 6.2115C149.827 3.703 152 1.504 152 1.325C152 1.1465 151.152 1 150.117 1C148.381 1 147.785 1.4495 142.5 6.75C139.346 9.9125 136.594 12.5 136.383 12.5C136.172 12.5 136 9.9125 136 6.75V1H134.5H133V13ZM176 13C176 22.4445 176.136 25.038 176.625 24.875C177.101 24.7165 177.25 21.889 177.25 13C177.25 4.111 177.101 1.2835 176.625 1.125C176.136 0.962 176 3.5555 176 13ZM196.833 1.3335C196.65 1.5165 196.5 6.9165 196.5 13.3335C196.5 23.3705 196.605 25 197.25 25C197.76 25 198 24.4895 198 23.4065V21.813L199.375 23.0955C202.285 25.8095 204.868 26.2 208.057 24.408C210.958 22.7775 212.197 19.883 211.882 15.475C211.738 13.463 211.284 11.4955 210.79 10.742C208.171 6.744 201.387 6.3865 198.78 10.1085C198.051 11.149 198 10.8855 198 6.1115C198 1.43 197.752 0.4145 196.833 1.3335ZM230.724 1.6365C230.59 1.9865 230.541 7.3115 230.615 13.47C230.716 21.8855 230.905 24.719 231.375 24.8755C231.863 25.038 232 22.4525 232 13.0415C232 5.103 231.824 1 231.484 1C231.2 1 230.858 1.2865 230.724 1.6365ZM123.697 4.758C126.037 5.8685 127.127 8.0835 127.367 12.214C127.54 15.1945 127.39 16.099 126.411 17.9705C124.68 21.2815 123.331 22.0375 118.574 22.3635L114.5 22.643V13.3215V4H118.3C120.659 4 122.705 4.2875 123.697 4.758ZM182.976 8.6265C180.337 10.405 179.25 12.7125 179.25 16.5365C179.25 19.258 179.478 20.1685 180.58 21.8335C183.78 26.6685 190.22 26.6685 193.419 21.8335C195.165 19.195 195.312 14.207 193.723 11.5015C191.422 7.585 186.483 6.2635 182.976 8.6265ZM216.887 8.2795C215.356 9.1105 214.5 10.433 214.5 11.967C214.5 13.4965 215.222 13.221 216.035 11.381C216.428 10.4905 217.312 9.4685 218 9.11C219.624 8.2635 223.263 8.6305 224.52 9.7685C225.632 10.775 225.848 13.589 224.875 14.3955C224.531 14.68 222.492 15.1575 220.343 15.456C214.571 16.258 213.5 17.1065 213.5 20.88C213.5 22.2875 213.832 23.1375 214.701 23.954C217.091 26.1995 222.437 25.7585 224.492 23.1465C225.38 22.017 225.5 21.98 225.5 22.8325C225.5 24.1275 226.446 25 227.85 25C229.243 25 229.375 24.2145 228.04 23.8655C227.162 23.636 227.065 23.024 226.915 16.7625C226.751 9.9625 226.739 9.902 225.347 8.7055C224.211 7.7295 223.402 7.504 221.097 7.52C219.531 7.531 217.637 7.873 216.887 8.2795ZM189.777 9.2965C193.038 10.8435 194.535 16.717 192.624 20.4645C191.387 22.89 189.478 24.1365 187 24.1365C181.762 24.1365 178.832 17.7615 181.519 12.211C183.144 8.854 186.413 7.7 189.777 9.2965ZM206.985 9.1395C209.243 10.282 210.5 12.8095 210.5 16.2065C210.5 19.9575 209.331 22.4065 206.957 23.631C203.922 25.1965 200.543 23.803 198.969 20.336C195.855 13.478 201.095 6.159 206.985 9.1395ZM224.767 20.967C223.654 23.119 221.808 24.1665 219.131 24.1665C217.259 24.1665 216.628 23.9185 215.671 22.8055C214.203 21.099 214.191 19.907 215.625 18.2775C216.546 17.2305 217.473 16.901 220.75 16.4565C222.95 16.158 224.862 15.7995 225 15.66C225.666 14.984 225.462 19.623 224.767 20.967ZM234.6 21.1C233.164 22.536 234.262 25 236.338 25C237.94 25 239.254 22.9095 238.518 21.5335C237.897 20.374 235.582 20.1175 234.6 21.1ZM237.913 22.678C238.022 23.6335 237.891 23.992 237.518 23.761C237.21 23.571 237.096 22.985 237.263 22.458C237.496 21.725 237.324 21.5 236.533 21.5C235.737 21.5 235.502 21.816 235.507 22.875C235.513 23.8185 235.648 24.0405 235.938 23.583C236.275 23.0505 236.425 23.083 236.678 23.7445C237.1 24.8445 235.559 24.571 234.832 23.417C234.137 22.312 235.281 20.8975 236.706 21.101C237.437 21.2055 237.799 21.678 237.913 22.678Z" fill="white"/>
</svg>
