<svg width="222" height="48" viewBox="0 0 222 48" fill="none" xmlns="http://www.w3.org/2000/svg">
<path fill-rule="evenodd" clip-rule="evenodd" d="M10.441 1.1905C7.799 2.1345 5.2295 3.834 3.6935 5.6525C1.9175 7.756 0.0109973 11.893 0.00499725 13.6565C0.000497254 14.929 0.147002 15.0485 1.538 14.9065C2.907 14.767 3.1745 14.458 3.9725 12.0915C6.154 5.622 13.1015 2.125 19.5305 4.26C23.1085 5.4485 26.6775 8.9945 27.643 12.32C28.276 14.4995 28.511 14.766 29.924 14.9065C31.8715 15.1005 31.965 14.281 30.457 10.2495C29.065 6.529 25.471 2.935 21.7505 1.543C18.5365 0.340501 13.278 0.1765 10.441 1.1905ZM165.91 1.2615C161.271 2.745 156.809 8.1045 155.827 13.375C155.535 14.9455 155.581 15 157.203 15C158.764 15 158.92 14.849 159.423 12.85C161.188 5.839 169.466 1.783 176.549 4.458C178.089 5.0395 180.002 6.1805 180.799 6.9935C182.525 8.752 183.048 8.8275 184.258 7.4915C185.147 6.509 185.135 6.4455 183.799 5.051C183.045 4.2635 181.263 2.9835 179.839 2.206C177.63 1 176.589 0.772002 172.75 0.653002C169.775 0.560502 167.457 0.767003 165.91 1.2615ZM200.046 1.3825C195.613 3.1265 191.236 8.485 190.249 13.375C189.93 14.9555 189.968 15 191.631 15C193.213 15 193.389 14.84 193.962 12.875C195.333 8.1775 199.59 4.4225 204.355 3.708C210.34 2.8105 216.55 6.941 218.138 12.875C218.664 14.837 218.835 15 220.376 15C222.032 15 222.042 14.9855 221.704 13.125C220.879 8.585 217.304 3.965 213.007 1.883C209.953 0.404002 203.196 0.143002 200.046 1.3825ZM38 7.9685V15H39.764H41.528L41.389 8.125L41.25 1.25L39.625 1.0935L38 0.936503V7.9685ZM55 8V15.0635L56.625 14.9065L58.25 14.75V8V1.25L56.625 1.0935L55 0.936503V8ZM74.242 7.823C72.459 11.576 71 14.726 71 14.823C71 14.9205 71.7855 15 72.745 15C74.4085 15 74.559 14.8475 75.9635 11.75C76.774 9.9625 77.6425 8.5 77.8935 8.5C78.1445 8.5 78.9715 9.9625 79.731 11.75C81.044 14.8385 81.1965 15 82.8065 15C83.738 15 84.5 14.8475 84.5 14.661C84.5 13.925 78.226 1.0055 77.867 1.003C77.6565 1.0015 76.0255 4.0705 74.242 7.823ZM97.5 8V15H99C100.492 15 100.5 14.9845 100.5 12.1405V9.2815L103.424 12.1755C106.06 14.784 106.53 15.0535 108.186 14.9095L110.023 14.75L103.988 7.875C100.669 4.094 97.8515 1 97.7265 1C97.602 1 97.5 4.15 97.5 8ZM118 8V15H119.5H121V8V1H119.5H118V8ZM125.692 1.721C125.54 2.117 125.493 2.8485 125.588 3.346C125.73 4.093 126.345 4.2755 129.13 4.398L132.5 4.5455V9.8045V15.0635L134.125 14.9065C135.019 14.8205 135.778 14.469 135.812 14.125C135.847 13.7815 135.903 11.4855 135.938 9.024L136 4.5475L139.125 4.399C142.25 4.25 142.25 4.25 142.406 2.625L142.564 1H134.266C127.501 1 125.918 1.133 125.692 1.721ZM146.5 7.9685V15H148.264H150.028L149.889 8.125L149.75 1.25L148.125 1.0935L146.5 0.936503V7.9685ZM191.374 17.8925C190.162 18.046 190.035 18.2265 190.309 19.4085C191.355 23.913 194.454 27.986 198.57 30.266C201.015 31.62 201.667 31.75 206 31.7475C210.18 31.7455 211.05 31.5855 213.25 30.416C217.49 28.161 220.863 23.836 221.665 19.625C221.963 18.06 221.915 18 220.341 18C218.842 18 218.66 18.175 218.137 20.125C216.352 26.773 207.522 30.9255 201.25 28.0665C197.562 26.385 194 22.3565 194 19.8655C194 18.6295 192.781 17.714 191.374 17.8925ZM0 19.1385C0 21.039 2.87 26.2825 4.873 28.041C7.273 30.148 10.451 31.5155 13.7355 31.8545C17.1735 32.2095 21 31.6435 21 30.7805C21 29.457 19.449 28.86 15.865 28.8055C9.818 28.713 5.3 25.6005 3.809 20.5C3.228 18.511 2.969 18.232 1.576 18.0935C0.201496 17.9565 0 18.0905 0 19.1385ZM27.989 18.875C27.983 19.3565 27.525 20.7485 26.9715 21.9685L25.965 24.1875L27.0045 25.2185L28.044 26.25L29.0075 25C29.9825 23.735 31.5 19.8755 31.5 18.661C31.5 18.239 30.8675 18 29.75 18C28.421 18 27.9975 18.2105 27.989 18.875ZM38 20.2785C38 25.6105 40.637 30.3075 44.311 31.52C46.969 32.3975 51.4515 31.9205 53.7185 30.5195C56.131 29.0285 57.839 25.42 58.1655 21.125L58.4025 18H56.7685H55.1345L54.8905 21.4055C54.7425 23.4795 54.296 25.3465 53.7495 26.181C51.295 29.927 45.4865 29.933 42.544 26.1925C41.7155 25.139 41.5 24.1565 41.5 21.4325V18H39.75C38.006 18 38 18.008 38 20.2785ZM66.4645 24.2435C64.834 27.6775 63.5 30.715 63.5 30.9935C63.5 31.272 64.173 31.5 64.9955 31.5C66.3865 31.5 66.6615 31.16 68.937 26.625C70.282 23.9435 71.735 20.9065 72.166 19.875L72.949 18H71.189H69.4285L66.4645 24.2435ZM83 18.4245C83 18.6585 84.3515 21.696 86.003 25.1745C88.8865 31.2475 89.0675 31.5 90.5395 31.5C92.439 31.5 92.4655 31.629 89 24.043C86.312 18.159 86.2135 18.0235 84.625 18.012C83.731 18.0055 83 18.191 83 18.4245ZM97.5 24.75V31.5H99H100.5V24.75V18H99H97.5V24.75ZM109 18.2845C109 18.631 120.472 31.5 120.781 31.5C120.902 31.5 121 28.4625 121 24.75V18H119.5C118.01 18 118 18.019 117.977 20.875L117.954 23.75L115.342 20.875C113.053 18.356 112.498 18 110.865 18C109.839 18 109 18.128 109 18.2845ZM132.611 24.625L132.75 31.25L134.096 31.4055L135.442 31.561L135.596 25.2715C135.68 21.812 135.675 18.761 135.583 18.491C135.491 18.221 134.754 18 133.944 18H132.471L132.611 24.625ZM146.611 24.625L146.75 31.25H148.25H149.75L149.889 24.625L150.029 18H148.25H146.471L146.611 24.625ZM156.066 20.0445C157.071 24.517 160.678 28.945 164.842 30.8165C167.806 32.149 176.037 32.0795 179.025 30.697C181.264 29.6615 185 26.7445 185 26.0325C185 25.8325 184.45 25.375 183.779 25.0155C182.68 24.427 182.393 24.501 180.904 25.7585C178.218 28.025 175.591 28.9775 172 28.984C166.139 28.995 161.552 25.846 159.657 20.51C158.841 18.2145 158.631 18 157.186 18H155.607L156.066 20.0445ZM17.352 21.4415C26.8295 33.634 26.6745 33.4645 28.363 33.4825L29.976 33.5L26.172 28.625C19.159 19.6365 18.548 19 16.9305 19H15.4545L17.352 21.4415ZM80 40.847C76.8185 41.9835 77.6865 47 81.0645 47C82.61 47 83.5 46.1415 83.5 44.65C83.5 43.7565 83.221 43.5 82.25 43.5C81.5625 43.5 81 43.725 81 44C81 44.275 81.45 44.5 82 44.5C83.2995 44.5 83.2815 45.314 81.9665 46.018C81.1625 46.448 80.6625 46.394 79.7165 45.774C77.4035 44.2585 78.8285 41.1405 81.582 41.6915C82.3635 41.8475 83 41.756 83 41.4875C83 41.2195 82.7935 41 82.541 41C82.2885 41 81.782 40.9055 81.416 40.7895C81.0495 40.674 80.4125 40.7 80 40.847ZM104.571 41.0715C102.834 41.714 103.32 43.594 105.375 44.1805C106.934 44.6255 107.506 45.628 106.542 46.224C106.29 46.38 105.503 46.286 104.792 46.016C103.979 45.707 103.5 45.702 103.5 46.003C103.5 46.736 106.053 47.211 106.952 46.645C108.449 45.703 108.18 44.524 106.288 43.734C104.006 42.7805 103.789 41.233 106 41.675C106.825 41.84 107.5 41.782 107.5 41.546C107.5 40.8755 105.831 40.6055 104.571 41.0715ZM114.25 41.1015C112.901 41.8615 112.517 42.5105 112.508 44.0475C112.493 46.64 115.94 48.0005 117.673 46.0855C119.946 43.5735 117.134 39.478 114.25 41.1015ZM158.447 41.1795C155.926 42.429 157.01 47 159.827 47C162.403 47 163.982 43.498 162.125 41.9035C160.765 40.735 159.747 40.535 158.447 41.1795ZM39.6 43.875L39.75 46.75L41.875 46.9035C43.1325 46.9945 44 46.8415 44 46.5285C44 46.238 43.196 46 42.2135 46C39.759 46 39.988 44.387 42.5055 43.941L44.25 43.6315L42.375 43.566C40.8755 43.513 40.5 43.306 40.5 42.53C40.5 41.7775 40.92 41.5165 42.375 41.364C44.074 41.1865 44.025 41.16 41.85 41.084L39.45 41L39.6 43.875ZM49.09 44.125C49.178 47.17 49.1855 47.186 49.38 44.75L49.58 42.25L51.7795 44.75L53.9795 47.25L53.9145 44C53.8545 40.986 53.828 40.9135 53.55 43L53.25 45.25L51.5415 43.125C50.6015 41.956 49.6455 41 49.4165 41C49.1875 41 49.0405 42.4065 49.09 44.125ZM59.1 43.875L59.25 46.75L61.375 46.9035C62.6325 46.9945 63.5 46.8415 63.5 46.5285C63.5 46.238 62.696 46 61.7135 46C60.284 46 59.96 45.826 60.0945 45.129C60.1905 44.631 60.9025 44.1205 61.756 43.938L63.25 43.6185L61.625 43.559C60.3705 43.5135 60 43.279 60 42.53C60 41.7775 60.42 41.5165 61.875 41.364C63.574 41.1865 63.525 41.16 61.35 41.084L58.95 41L59.1 43.875ZM68.568 44.0965C68.6055 45.831 68.7355 46.73 68.857 46.0945C69.206 44.266 70.5015 44.1335 71.8275 45.791C72.96 47.206 73.461 47.003 72.5175 45.5115C72.197 45.004 72.31 44.4865 72.8795 43.857C74.123 42.4825 73.1235 41.285 70.574 41.0965L68.5 40.9425L68.568 44.0965ZM88.6905 42.7165C89.411 43.661 90 45.024 90 45.746C90 46.494 90.215 46.926 90.5 46.75C90.775 46.58 91 45.9745 91 45.4045C91 44.8345 91.4685 43.61 92.041 42.684C92.613 41.758 92.876 41 92.6255 41C92.3745 41 91.868 41.5625 91.5 42.25C91.132 42.9375 90.67 43.5 90.473 43.5C90.276 43.5 89.7465 42.9375 89.296 42.25C88.8455 41.5625 88.2305 41 87.929 41C87.628 41 87.9705 41.7725 88.6905 42.7165ZM123.5 44V47H125.6C127.819 47 127.747 46.218 125.5 45.9175C124.355 45.764 124.255 45.5505 124.312 43.375C124.346 42.0685 124.177 41 123.937 41C123.696 41 123.5 42.35 123.5 44ZM132 43.131C132 45.685 132.913 47 134.686 47C136.414 47 137.006 46.0195 136.933 43.275L136.867 40.75L136.531 43.16C135.932 47.4665 133.269 47.6815 132.693 43.4695C132.284 40.4785 132 40.34 132 43.131ZM142.375 41.353C143.358 41.542 143.5 41.877 143.5 44.0055C143.5 45.345 143.725 46.58 144 46.75C144.31 46.9415 144.5 46.017 144.5 44.3145C144.5 41.8655 144.622 41.546 145.625 41.353C146.244 41.2335 145.513 41.136 144 41.136C142.487 41.136 141.756 41.2335 142.375 41.353ZM151 44C151 45.6665 151.222 47 151.5 47C151.778 47 152 45.6665 152 44C152 42.3335 151.778 41 151.5 41C151.222 41 151 42.3335 151 44ZM168.09 44.125C168.177 47.141 168.187 47.163 168.372 44.7545L168.564 42.259L170.763 44.7545L172.962 47.25L172.981 44.0415C172.992 42.277 172.902 40.931 172.783 41.0505C172.592 41.241 172.159 43.384 172.041 44.716C172.019 44.972 171.277 44.241 170.393 43.091C169.509 41.941 168.609 41 168.393 41C168.177 41 168.04 42.4065 168.09 44.125ZM178.181 41.75C177.704 42.992 178.345 43.8865 179.966 44.2425C181.6 44.6015 182.018 45.694 180.714 46.1945C180.281 46.3605 179.494 46.2645 178.964 45.9805C178.316 45.634 178 45.6315 178 45.973C178 46.7295 180.535 47.223 181.453 46.645C182.949 45.703 182.68 44.524 180.789 43.734C178.507 42.7805 178.289 41.233 180.5 41.675C181.346 41.844 182 41.7625 182 41.4875C182 40.6725 178.502 40.913 178.181 41.75ZM72.25 42.75C72.25 43.421 71.861 43.805 71.0675 43.9175C69.626 44.1215 68.7575 43.3535 69.181 42.25C69.6525 41.0205 72.25 41.4435 72.25 42.75ZM117.25 42.6795C118.128 44.0195 117.82 45.293 116.441 46.0315C115.332 46.625 113.787 45.9675 113.298 44.6935C112.865 43.566 114.29 41.5 115.5 41.5C116.038 41.5 116.824 42.031 117.25 42.6795ZM161.4 42.1C162.382 43.0825 162.126 45.3975 160.967 46.018C159.671 46.7115 157.5 45.463 157.5 44.024C157.5 42.0345 160.067 40.7675 161.4 42.1Z" fill="white"/>
</svg>
